<svg preserveAspectRatio="none" width="100%" height="100%" overflow="visible" style="display: block;" viewBox="0 0 25 25" fill="none" xmlns="http://www.w3.org/2000/svg">
<g id="carbon:location-filled">
<path id="Vector" d="M11.9792 5.20898C10.4602 5.21078 9.00406 5.81496 7.93002 6.889C6.85598 7.96304 6.2518 9.41923 6.25001 10.9382C6.24819 12.1794 6.65364 13.387 7.40417 14.3757C7.40417 14.3757 7.56042 14.5814 7.58594 14.6111L11.9792 19.7923L16.3745 14.6085C16.3974 14.5809 16.5542 14.3757 16.5542 14.3757L16.5547 14.3741C17.3048 13.3859 17.7101 12.1788 17.7083 10.9382C17.7065 9.41923 17.1024 7.96304 16.0283 6.889C14.9543 5.81496 13.4981 5.21078 11.9792 5.20898V5.20898ZM11.9792 13.0215C11.5671 13.0215 11.1643 12.8993 10.8217 12.6704C10.4791 12.4415 10.2121 12.1161 10.0544 11.7354C9.89674 11.3547 9.85548 10.9358 9.93587 10.5317C10.0163 10.1276 10.2147 9.75637 10.506 9.46501C10.7974 9.17365 11.1686 8.97523 11.5727 8.89485C11.9769 8.81446 12.3957 8.85572 12.7764 9.0134C13.1571 9.17108 13.4825 9.43811 13.7114 9.78071C13.9403 10.1233 14.0625 10.5261 14.0625 10.9382C14.0618 11.4905 13.8421 12.02 13.4515 12.4105C13.061 12.8011 12.5315 13.0208 11.9792 13.0215V13.0215Z" fill="var(--fill-0, #FFF112)"/>
<g id="Vector_2">
</g>
</g>
</svg>
