<svg preserveAspectRatio="none" width="100%" height="100%" overflow="visible" style="display: block;" viewBox="0 0 1118.93 1148.58" fill="none" xmlns="http://www.w3.org/2000/svg">
<g id="Group 10">
<path id="Vector 3" d="M619.353 508.894C615.63 497.724 606.425 489.761 602.288 487.175C600.737 487.175 599.185 496.483 600.736 507.342C602.288 518.201 634.866 575.603 651.931 603.528C668.997 631.453 692.267 619.041 710.883 614.387C712.435 651.62 668.997 696.609 653.483 710.572C637.969 724.534 634.866 754.01 642.623 771.075C648.829 784.727 645.209 803.654 642.623 811.411C625.558 815.548 593.91 828.476 603.839 847.092C616.25 870.363 596.082 875.017 588.325 878.119C583.361 906.665 544.887 927.246 526.271 933.969C519.548 934.486 502.38 935.52 487.487 935.52C487.487 921.868 477.144 908.113 471.973 902.941C466.802 899.839 457.08 889.6 459.562 873.465C462.044 857.331 453.356 845.024 448.702 840.887C443.014 838.301 434.12 828.165 444.048 808.308C456.459 783.486 459.562 750.907 444.048 741.599C428.535 732.291 420.778 710.572 420.778 691.955C420.778 673.339 419.226 674.89 403.713 668.685C388.199 662.479 386.648 657.825 380.442 654.723C375.478 652.24 358.723 654.723 350.966 656.274C337.521 658.342 305.666 660.928 285.809 654.723C269.675 628.66 260.471 618.007 257.885 615.938C254.265 616.456 247.646 616.559 250.129 612.836C252.611 609.112 253.231 558.538 253.231 533.716C269.779 511.997 305.357 466.076 315.285 456.148C327.695 443.737 321.491 428.223 318.388 431.326C315.905 433.808 308.046 432.36 304.426 431.326C307.012 419.949 313.424 395.024 318.388 386.336C334.521 387.577 353.035 380.648 360.276 377.028V361.514L338.555 352.206C356.655 349.62 390.372 342.587 380.443 335.141C370.515 327.694 350.45 336.175 341.659 341.346V327.384C334.419 332.038 319.008 340.726 315.285 338.244C311.562 335.761 315.802 324.798 318.388 319.627C326.662 317.042 342.279 310.94 338.555 307.216C334.832 303.493 335.97 298.425 337.004 296.356C354.069 283.945 384.787 263.467 371.134 280.842C354.069 302.561 375.789 310.318 391.302 325.832C407.436 309.698 421.812 312.904 426.984 316.524L619.353 428.222C619.353 419.948 620.594 402.159 625.559 397.195C631.764 390.989 675.203 403.4 682.959 408.054C690.716 412.709 687.613 411.157 692.268 423.568C695.991 433.497 713.47 437.013 721.744 437.53C721.226 434.428 721.123 427.602 724.846 425.119C876.26 484.692 952.38 560.606 971.514 591.116C974.616 620.592 974.616 700.022 949.795 781.934C924.973 863.846 876.363 931.899 855.161 955.687C966.342 933.451 1165.12 844.299 1070.8 665.581C976.478 486.864 722.261 381.164 606.942 350.654L597.634 378.578L458.011 291.702H620.905C620.905 294.805 620.594 304.733 619.353 319.626C875.329 398.746 1041.33 539.922 1086.31 634.554C1131.3 729.186 1129.75 785.037 1081.66 864.156C1033.57 943.276 864.469 982.06 852.058 982.06C842.13 982.06 829.305 986.197 824.134 988.266C816.377 991.369 790.935 1022.71 682.959 1073.59C547.99 1137.2 462.665 1110.82 462.665 1107.72C462.665 1105.24 490.59 1092.21 504.552 1086C562.47 1083.93 704.678 1053.73 810.172 949.482C915.664 845.23 937.901 733.324 935.832 690.403C933.764 693.506 929.006 695.678 926.524 679.544C924.042 663.41 933.764 652.136 938.935 648.516L942.038 665.581C941.521 635.588 939.866 574.051 937.384 567.845C934.281 560.088 928.075 586.462 928.075 581.808C928.075 578.084 924.973 576.119 923.421 575.602C922.904 577.671 922.801 583.979 926.524 592.667C930.247 601.355 928.075 619.04 926.524 626.797C923.938 620.592 917.836 610.042 914.113 617.489C910.39 624.936 915.664 647.482 918.767 657.825L921.87 715.225C918.767 711.605 912.562 702.194 912.562 693.506C912.562 682.646 903.254 670.236 900.151 657.825C897.669 647.896 901.185 649.551 903.254 651.619L912.562 659.376L906.356 591.116L900.151 592.667C897.048 580.773 890.222 556.986 887.74 556.986C884.637 556.986 855.161 588.013 855.161 603.528C855.161 619.042 859.815 626.797 862.918 642.311C859.195 654.722 855.161 649.551 853.61 645.414V629.9C853.61 633.623 845.336 637.657 841.199 639.208V625.246L833.442 619.04L828.788 589.565C828.788 580.774 827.547 563.191 822.582 563.191C817.618 563.191 812.24 559.054 810.172 556.986C810.172 553.883 808.62 544.885 802.415 533.715C794.658 519.753 769.836 521.305 760.528 521.305C753.081 521.305 740.877 511.996 735.706 507.342L718.641 504.24C711.401 494.415 696.611 477.867 695.37 490.278C694.129 502.689 709.333 516.134 717.089 521.305H738.809L757.425 539.922C756.391 543.024 754.322 551.091 754.322 558.538C741.911 584.601 698.473 599.391 678.305 603.528C671.583 604.562 658.448 603.217 659.689 589.565C661.24 572.5 645.727 553.884 639.521 549.23C633.316 544.576 624.007 522.857 619.353 508.894Z" fill="var(--fill-0, #696969)" fill-opacity="0.05"/>
<path id="Vector 1" d="M231.513 238.956C222.825 251.367 220.653 279.291 220.653 291.702L279.603 257.572C283.74 252.401 293.565 240.818 299.771 235.853C361.473 192.662 458.451 187.815 520.555 184.711L521.616 184.658C571.26 182.176 645.726 206.377 676.753 218.788C676.753 220.34 676.443 223.132 675.202 221.891C673.65 220.34 658.137 226.545 658.137 228.096C658.137 229.338 670.548 234.819 676.753 237.405V229.648C696.611 220.96 717.089 237.405 724.845 246.713C726.397 253.953 727.948 266.57 721.743 259.124C715.537 251.677 694.335 247.747 684.51 246.713C678.304 246.196 664.342 243.92 658.137 238.956C651.931 233.992 648.311 239.99 647.277 243.61C645.726 246.713 641.692 251.057 637.969 243.61C634.246 236.164 628.144 236.37 625.558 237.405V246.713L586.774 251.367C584.188 249.298 579.327 244.541 580.568 242.059C581.809 239.577 586.257 241.025 588.325 242.059C593.496 242.576 605.39 242.99 611.596 240.507C589.256 218.168 527.822 215.686 499.897 217.237C490.589 218.271 470.111 222.822 462.664 232.751C455.218 242.679 437.842 253.435 430.086 257.572C441.979 257.572 468.87 257.262 481.281 256.021C493.692 254.78 510.24 243.093 516.962 237.405C519.031 237.922 523.788 239.887 526.27 243.61C510.136 248.575 508.171 254.987 509.205 257.572H659.688L650.38 299.459C699.506 317.042 824.443 367.099 931.177 426.671C856.712 260.365 712.952 189.829 650.38 175.35L620.904 139.669C542.302 51.2412 354.38 -85.8997 231.513 72.9604C108.645 231.82 146.187 550.782 180.316 690.405L155.495 698.161L239.268 839.336V674.891C237.2 675.408 229.03 677.373 212.896 681.096C148.359 462.664 186.006 272.57 212.896 204.827C225.307 156.734 271.848 55.8938 358.725 37.2774C445.601 18.661 549.026 109.158 589.879 156.733C560.92 153.114 486.558 147.425 420.78 153.631C338.557 161.388 242.372 223.442 231.513 238.956Z" fill="var(--fill-0, #696969)" fill-opacity="0.05"/>
<path id="Vector 2" d="M119.814 425.12V355.309C46.5904 457.078 31.3857 571.466 32.9363 615.938C33.4534 629.901 35.4186 673.649 39.1426 736.945C-1.8135 851.126 -2.74432 940.691 1.90978 971.201C7.08101 1045.67 68.3083 1183.74 271.848 1140.3C475.387 1096.86 649.347 954.654 710.885 888.979L734.155 909.147L814.826 760.215L667.446 845.541C669.515 848.643 676.444 857.641 687.614 868.811C503.932 1047.53 318.389 1107.72 248.577 1115.48C200.485 1122.72 94.9921 1119.51 57.7593 1048.77C11.2183 960.342 34.4888 864.157 57.7593 786.589C101.198 938.002 232.03 1033.77 292.016 1062.73C315.286 1073.59 333.903 1064.28 349.416 1054.98C236.167 1019.29 138.43 885.876 133.776 878.119C130.053 871.914 131.191 866.226 132.225 864.157L136.879 856.4C139.465 851.229 144.636 837.784 144.636 825.373C171.94 810.48 161.184 777.798 152.393 763.318L107.403 685.75C106.369 684.198 105.231 679.544 108.954 673.339C112.678 667.133 109.472 660.411 107.403 657.825L81.0298 626.798C76.8928 625.247 67.6881 620.903 63.9648 615.938C66.447 510.445 102.232 444.771 119.814 425.12Z" fill="var(--fill-0, #696969)" fill-opacity="0.05"/>
</g>
</svg>
